<svg width="500" height="140" viewBox="0 0 500 140" fill="none" xmlns="http://www.w3.org/2000/svg">
  <!-- Compact version for navigation -->
  <g id="logo-compact">
    <!-- Globe with M -->
    <circle cx="50" cy="70" r="40" fill="none" stroke="#0066CC" stroke-width="3"/>
    <path d="M50 30 Q62 45, 50 70 Q38 45, 50 30Z" fill="#00BCD4"/>
    <path d="M10 70 Q22 60, 50 70 Q22 80, 10 70Z" fill="#0066CC"/>
    <path d="M50 110 Q38 95, 50 70 Q62 95, 50 110Z" fill="#0066CC"/>
    <path d="M90 70 Q78 80, 50 70 Q78 60, 90 70Z" fill="#00BCD4"/>
    
    <!-- M Letter -->
    <path d="M35 60 L37 80 L42 68 L47 80 L50 80 L55 68 L60 80 L62 80 L65 60 L60 60 L52 72 L47 60 L42 72 L35 60Z" fill="white" stroke="#0066CC" stroke-width="0.5"/>
    
    <!-- Cursor -->
    <path d="M70 65 L85 80 L80 80 L80 90 L75 90 L75 80 L70 80 Z" fill="#00BCD4"/>
  </g>
  
  <!-- MONE -->
  <text x="110" y="85" font-family="Arial, sans-serif" font-size="48" font-weight="900" fill="#0066CC">MONE</text>
  
  <!-- NETWORKS -->
  <text x="260" y="85" font-family="Arial, sans-serif" font-size="28" font-weight="700" fill="#5A6C7D">NETWORKS</text>
  
  <!-- Tagline -->
  <text x="110" y="110" font-family="Arial, sans-serif" font-size="10" font-weight="600" fill="#5A6C7D" letter-spacing="1">WEB DESIGN AGENCY</text>
</svg>
